<svg xmlns="http://www.w3.org/2000/svg" xml:space="preserve" style="enable-background:new 0 0 257.322 389.068" viewBox="0 0 257.322 389.068" id="coffee">
    <path d="M72.435 99.84S51.699 336.574 205.459 335.031l-3.094 41.686H51.863L32.938 99.84h39.497z" style="fill:#c9711a"></path>
    <path d="M244.971 43.742h-10.112l-4.675-33.116A12.354 12.354 0 0 0 217.952 0H39.37a12.352 12.352 0 0 0-12.231 10.627l-4.675 33.116H12.351C5.53 43.742 0 49.273 0 56.094v42.717c0 6.821 5.53 12.351 12.351 12.351h7.487l17.758 266.375c.434 6.489 5.823 11.531 12.324 11.531H207.4c6.501 0 11.89-5.042 12.324-11.531l17.758-266.375h7.487c6.821 0 12.351-5.53 12.351-12.351V56.094c.002-6.821-5.528-12.352-12.349-12.352zM24.703 86.46V68.445H232.62V86.46H24.703zm25.396-61.757h157.124l2.687 19.04H47.412l2.687-19.04zm11.377 339.662-6.519-97.783h28.632c11.275 12.994 27.679 20.581 45.072 20.581s33.797-7.587 45.075-20.581h28.629l-6.519 97.783H61.476zM203.795 241.88H167.7a12.354 12.354 0 0 0-10.18 5.358c-6.547 9.532-17.336 15.222-28.858 15.222s-22.308-5.69-28.852-15.222a12.355 12.355 0 0 0-10.183-5.358H53.528l-1.665-28.825h37.76c4.068 0 7.876-2.002 10.18-5.358 6.547-9.532 17.336-15.222 28.858-15.222s22.311 5.69 28.858 15.222a12.346 12.346 0 0 0 10.18 5.358h37.76l-1.664 28.825zm3.785-53.528h-33.844c-11.278-12.994-27.682-20.581-45.075-20.581s-33.797 7.587-45.075 20.581H49.742l-5.146-77.19h168.131l-5.147 77.19z" style="fill:#352517"></path>
  </svg>